<mxfile host="app.diagrams.net" agent="Mozilla/5.0 (X11; Ubuntu; Linux x86_64; rv:128.0) Gecko/20100101 Firefox/128.0" version="25.0.3">
  <diagram name="Page-1" id="GB8cJ9GdSOc3UfpPXsYy">
    <mxGraphModel dx="1687" dy="894" grid="1" gridSize="10" guides="1" tooltips="1" connect="1" arrows="1" fold="1" page="1" pageScale="1" pageWidth="4000" pageHeight="4000" math="0" shadow="0">
      <root>
        <mxCell id="0" />
        <mxCell id="1" parent="0" />
        <mxCell id="dsJGXCBRymkmlx7N2I7_-1" value="" style="verticalLabelPosition=bottom;verticalAlign=top;html=1;shape=mxgraph.basic.diag_snip_rect;dx=6;fillColor=#e1d5e7;strokeColor=#9673a6;strokeWidth=10;whiteSpace=wrap;horizontal=1;" vertex="1" parent="1">
          <mxGeometry x="1700" y="140" width="600" height="300" as="geometry" />
        </mxCell>
        <mxCell id="dsJGXCBRymkmlx7N2I7_-2" value="&lt;p&gt;&lt;font style=&quot;font-size: 60px;&quot; face=&quot;Courier New&quot;&gt;Seg fault?&lt;/font&gt;&lt;/p&gt;" style="text;html=1;align=center;verticalAlign=middle;whiteSpace=wrap;rounded=0;fontFamily=Helvetica;fontSize=12;fontColor=default;" vertex="1" parent="1">
          <mxGeometry x="1700" y="140" width="600" height="300" as="geometry" />
        </mxCell>
        <mxCell id="dsJGXCBRymkmlx7N2I7_-5" value="" style="verticalLabelPosition=bottom;verticalAlign=top;html=1;shape=mxgraph.basic.diag_snip_rect;dx=6;whiteSpace=wrap;strokeWidth=5;align=center;fontFamily=Helvetica;fontSize=12;gradientColor=none;fillStyle=auto;shadow=0;" vertex="1" parent="1">
          <mxGeometry x="1900" y="840" width="200" height="100" as="geometry" />
        </mxCell>
        <mxCell id="dsJGXCBRymkmlx7N2I7_-4" value="" style="shape=flexArrow;endArrow=classic;html=1;rounded=0;fontFamily=Helvetica;fontSize=12;fontColor=default;exitX=0.5;exitY=1;exitDx=0;exitDy=0;exitPerimeter=0;entryX=0.5;entryY=0;entryDx=0;entryDy=0;entryPerimeter=0;fillColor=#f8cecc;strokeColor=#b85450;sourcePerimeterSpacing=0;flowAnimation=0;strokeWidth=3;targetPerimeterSpacing=0;startArrow=none;startFill=0;sketch=1;curveFitting=1;jiggle=2;" edge="1" parent="1" source="dsJGXCBRymkmlx7N2I7_-7" target="dsJGXCBRymkmlx7N2I7_-5">
          <mxGeometry width="50" height="50" relative="1" as="geometry">
            <mxPoint x="2000" y="440" as="sourcePoint" />
            <mxPoint x="2000" y="840" as="targetPoint" />
          </mxGeometry>
        </mxCell>
        <mxCell id="dsJGXCBRymkmlx7N2I7_-8" value="" style="shape=flexArrow;endArrow=classic;html=1;rounded=0;fontFamily=Helvetica;fontSize=12;fontColor=default;exitX=0.5;exitY=1;exitDx=0;exitDy=0;exitPerimeter=0;entryX=0.5;entryY=0;entryDx=0;entryDy=0;entryPerimeter=0;fillColor=#f8cecc;strokeColor=#b85450;sourcePerimeterSpacing=0;flowAnimation=0;strokeWidth=3;targetPerimeterSpacing=0;startArrow=none;startFill=0;sketch=1;curveFitting=1;jiggle=2;" edge="1" parent="1" source="dsJGXCBRymkmlx7N2I7_-1" target="dsJGXCBRymkmlx7N2I7_-7">
          <mxGeometry width="50" height="50" relative="1" as="geometry">
            <mxPoint x="2000" y="390" as="sourcePoint" />
            <mxPoint x="2000" y="960" as="targetPoint" />
          </mxGeometry>
        </mxCell>
        <mxCell id="dsJGXCBRymkmlx7N2I7_-7" value="&lt;p&gt;&lt;font face=&quot;Courier New&quot; style=&quot;font-size: 20px;&quot;&gt;noob&lt;/font&gt;&lt;/p&gt;" style="text;html=1;align=center;verticalAlign=middle;whiteSpace=wrap;rounded=0;fontFamily=Helvetica;fontSize=12;fontColor=default;" vertex="1" parent="1">
          <mxGeometry x="1970" y="620" width="60" height="50" as="geometry" />
        </mxCell>
        <mxCell id="dsJGXCBRymkmlx7N2I7_-9" value="&lt;font style=&quot;font-size: 20px;&quot; face=&quot;Courier New&quot;&gt;valgrind bro&lt;/font&gt;" style="text;html=1;align=center;verticalAlign=middle;whiteSpace=wrap;rounded=0;fontFamily=Helvetica;fontSize=12;fontColor=default;" vertex="1" parent="1">
          <mxGeometry x="1880" y="840" width="240" height="100" as="geometry" />
        </mxCell>
        <mxCell id="dsJGXCBRymkmlx7N2I7_-11" value="" style="shape=flexArrow;endArrow=classic;html=1;rounded=0;sketch=1;jiggle=2;curveFitting=1;strokeColor=#b85450;strokeWidth=3;align=center;verticalAlign=middle;fontFamily=Helvetica;fontSize=12;fontColor=default;labelBackgroundColor=default;flowAnimation=0;sourcePerimeterSpacing=0;targetPerimeterSpacing=0;fillColor=#f8cecc;entryX=0.5;entryY=0;entryDx=0;entryDy=0;entryPerimeter=0;exitX=0.5;exitY=1;exitDx=0;exitDy=0;exitPerimeter=0;" edge="1" parent="1" source="dsJGXCBRymkmlx7N2I7_-5" target="dsJGXCBRymkmlx7N2I7_-15">
          <mxGeometry width="50" height="50" relative="1" as="geometry">
            <mxPoint x="2030" y="1070" as="sourcePoint" />
            <mxPoint x="2000" y="1240" as="targetPoint" />
          </mxGeometry>
        </mxCell>
        <mxCell id="dsJGXCBRymkmlx7N2I7_-15" value="" style="verticalLabelPosition=bottom;verticalAlign=middle;html=1;shape=mxgraph.basic.diag_snip_rect;dx=6;whiteSpace=wrap;rounded=0;align=center;fontFamily=Helvetica;fontSize=12;fontColor=default;fillColor=default;gradientColor=none;strokeColor=default;strokeWidth=5;" vertex="1" parent="1">
          <mxGeometry x="1900" y="1100" width="200" height="100" as="geometry" />
        </mxCell>
        <mxCell id="dsJGXCBRymkmlx7N2I7_-17" value="&lt;font face=&quot;Courier New&quot; style=&quot;font-size: 20px;&quot;&gt;what type?&lt;/font&gt;" style="text;html=1;align=center;verticalAlign=middle;whiteSpace=wrap;rounded=0;fontFamily=Helvetica;fontSize=12;fontColor=default;" vertex="1" parent="1">
          <mxGeometry x="1900" y="1100" width="200" height="100" as="geometry" />
        </mxCell>
        <mxCell id="dsJGXCBRymkmlx7N2I7_-18" value="" style="shape=flexArrow;endArrow=classic;html=1;rounded=0;sketch=1;jiggle=2;curveFitting=1;strokeColor=#b85450;strokeWidth=3;align=center;verticalAlign=middle;fontFamily=Helvetica;fontSize=12;fontColor=default;labelBackgroundColor=default;flowAnimation=0;sourcePerimeterSpacing=0;targetPerimeterSpacing=0;fillColor=#f8cecc;exitX=1;exitY=0.5;exitDx=0;exitDy=0;" edge="1" parent="1" source="dsJGXCBRymkmlx7N2I7_-20">
          <mxGeometry width="50" height="50" relative="1" as="geometry">
            <mxPoint x="2130" y="1150" as="sourcePoint" />
            <mxPoint x="2600" y="1200" as="targetPoint" />
            <Array as="points">
              <mxPoint x="2490" y="1150" />
              <mxPoint x="2540" y="1160" />
            </Array>
          </mxGeometry>
        </mxCell>
        <mxCell id="dsJGXCBRymkmlx7N2I7_-19" value="" style="shape=flexArrow;endArrow=classic;html=1;rounded=0;sketch=1;jiggle=2;curveFitting=1;strokeColor=#b85450;strokeWidth=3;align=center;verticalAlign=middle;fontFamily=Helvetica;fontSize=12;fontColor=default;labelBackgroundColor=default;flowAnimation=0;sourcePerimeterSpacing=0;targetPerimeterSpacing=0;fillColor=#f8cecc;exitX=1;exitY=0.5;exitDx=0;exitDy=0;" edge="1" parent="1" source="dsJGXCBRymkmlx7N2I7_-17" target="dsJGXCBRymkmlx7N2I7_-20">
          <mxGeometry width="50" height="50" relative="1" as="geometry">
            <mxPoint x="2100" y="1150" as="sourcePoint" />
            <mxPoint x="2600" y="1150" as="targetPoint" />
          </mxGeometry>
        </mxCell>
        <mxCell id="dsJGXCBRymkmlx7N2I7_-20" value="&lt;font style=&quot;font-size: 20px;&quot; face=&quot;Courier New&quot;&gt;invalid read/write&lt;/font&gt;" style="text;html=1;align=center;verticalAlign=middle;whiteSpace=wrap;rounded=0;fontFamily=Helvetica;fontSize=12;fontColor=default;" vertex="1" parent="1">
          <mxGeometry x="2290" y="1135" width="130" height="30" as="geometry" />
        </mxCell>
        <mxCell id="dsJGXCBRymkmlx7N2I7_-21" value="" style="verticalLabelPosition=bottom;verticalAlign=top;html=1;shape=mxgraph.basic.diag_snip_rect;dx=6;whiteSpace=wrap;rounded=0;align=center;fontFamily=Helvetica;fontSize=12;fontColor=default;fillColor=default;gradientColor=none;strokeWidth=5;" vertex="1" parent="1">
          <mxGeometry x="2650" y="1090" width="170" height="100" as="geometry" />
        </mxCell>
      </root>
    </mxGraphModel>
  </diagram>
</mxfile>
